HIERARCHY
ROOT Hips
{
  OFFSET 5.84602e-005 68.8428 3.50346
  CHANNELS 6 Xposition Yposition Zposition Zrotation Xrotation Yrotation
  JOINT Spine
  {
    OFFSET 0 8.597 -4.6522
    CHANNELS 3 Zrotation Xrotation Yrotation
    JOINT Spine1
    {
      OFFSET 0 7.8454 0.4098
      CHANNELS 3 Zrotation Xrotation Yrotation
      JOINT Spine2
      {
        OFFSET 0 9.7078 -2.1609
        CHANNELS 3 Zrotation Xrotation Yrotation
        JOINT Neck
        {
          OFFSET 0 21.8761 -0.4549
          CHANNELS 3 Zrotation Xrotation Yrotation
          JOINT Head
          {
            OFFSET 0 12.3537 3.3602
            CHANNELS 3 Zrotation Xrotation Yrotation
            End Site
            {
              OFFSET 0.0001 18.9506 0.5657
            }
          }
        }
        JOINT LeftShoulder
        {
          OFFSET 2.2086 21.1115 7.2329
          CHANNELS 3 Zrotation Xrotation Yrotation
          JOINT LeftArm
          {
            OFFSET 13.1193 3.0282 -4.8998
            CHANNELS 3 Zrotation Xrotation Yrotation
            JOINT LeftForeArm
            {
              OFFSET 27.4081 -0.0973053 -0.2375
              CHANNELS 3 Zrotation Xrotation Yrotation
              JOINT LeftHand
              {
                OFFSET 22.8641 0.0662994 -0.1369
                CHANNELS 3 Zrotation Xrotation Yrotation
                JOINT LeftHandIndex1
                {
                  OFFSET 8.8614 0.775009 2.4612
                  CHANNELS 3 Zrotation Xrotation Yrotation
                  JOINT LeftHandIndex2
                  {
                    OFFSET 3.3146 -0.808304 0.5841
                    CHANNELS 3 Zrotation Xrotation Yrotation
                    JOINT LeftHandIndex3
                    {
                      OFFSET 2.2628 -0.552002 0.3989
                      CHANNELS 3 Zrotation Xrotation Yrotation
                      End Site
                      {
                        OFFSET 1.6102 -0.4807 0.2612
                      }
                    }
                  }
                }
                JOINT LeftHandMiddle1
                {
                  OFFSET 8.9937 0.895004 0.2143
                  CHANNELS 3 Zrotation Xrotation Yrotation
                  JOINT LeftHandMiddle2
                  {
                    OFFSET 4.0984 0.0113983 -0.0242
                    CHANNELS 3 Zrotation Xrotation Yrotation
                    JOINT LeftHandMiddle3
                    {
                      OFFSET 2.2716 0.00689697 -0.0138001
                      CHANNELS 3 Zrotation Xrotation Yrotation
                      End Site
                      {
                        OFFSET 2.0404 -0.1441 0.0027
                      }
                    }
                  }
                }
                JOINT LeftHandRing1
                {
                  OFFSET 8.5234 0.597198 -2.0164
                  CHANNELS 3 Zrotation Xrotation Yrotation
                  JOINT LeftHandRing2
                  {
                    OFFSET 3.7188 -0.188293 -0.2328
                    CHANNELS 3 Zrotation Xrotation Yrotation
                    JOINT LeftHandRing3
                    {
                      OFFSET 2.1191 -0.106598 -0.1332
                      CHANNELS 3 Zrotation Xrotation Yrotation
                      End Site
                      {
                        OFFSET 1.8737 -0.2304 -0.0886
                      }
                    }
                  }
                }
                JOINT LeftHandPinky1
                {
                  OFFSET 7.9094 -0.601089 -3.4825
                  CHANNELS 3 Zrotation Xrotation Yrotation
                  JOINT LeftHandPinky2
                  {
                    OFFSET 2.2874 -0.477005 -0.6314
                    CHANNELS 3 Zrotation Xrotation Yrotation
                    JOINT LeftHandPinky3
                    {
                      OFFSET 1.6774 -0.349396 -0.4633
                      CHANNELS 3 Zrotation Xrotation Yrotation
                      End Site
                      {
                        OFFSET 1.4888 -0.4091 -0.3416
                      }
                    }
                  }
                }
                JOINT LeftHandThumb1
                {
                  OFFSET 1.833 -1.3875 1.3896
                  CHANNELS 3 Zrotation Xrotation Yrotation
                  JOINT LeftHandThumb2
                  {
                    OFFSET 3.4129 -1.121 2.5732
                    CHANNELS 3 Zrotation Xrotation Yrotation
                    JOINT LeftHandThumb3
                    {
                      OFFSET 2.2474 -0.804199 1.6192
                      CHANNELS 3 Zrotation Xrotation Yrotation
                      End Site
                      {
                        OFFSET 1.6527 -0.5689 1.1317
                      }
                    }
                  }
                }
              }
            }
          }
        }
        JOINT RightShoulder
        {
          OFFSET -2.2086 21.1115 7.2329
          CHANNELS 3 Zrotation Xrotation Yrotation
          JOINT RightArm
          {
            OFFSET -13.1216 3.0287 -4.9007
            CHANNELS 3 Zrotation Xrotation Yrotation
            JOINT RightForeArm
            {
              OFFSET -27.4081 -0.0973053 -0.2375
              CHANNELS 3 Zrotation Xrotation Yrotation
              JOINT RightHand
              {
                OFFSET -22.8641 0.0664063 -0.1369
                CHANNELS 3 Zrotation Xrotation Yrotation
                JOINT RightHandIndex1
                {
                  OFFSET -8.8614 0.774994 2.4612
                  CHANNELS 3 Zrotation Xrotation Yrotation
                  JOINT RightHandIndex2
                  {
                    OFFSET -3.3146 -0.808304 0.5841
                    CHANNELS 3 Zrotation Xrotation Yrotation
                    JOINT RightHandIndex3
                    {
                      OFFSET -2.2628 -0.552002 0.3989
                      CHANNELS 3 Zrotation Xrotation Yrotation
                      End Site
                      {
                        OFFSET -1.6102 -0.4807 0.2612
                      }
                    }
                  }
                }
                JOINT RightHandMiddle1
                {
                  OFFSET -8.9937 0.894989 0.2143
                  CHANNELS 3 Zrotation Xrotation Yrotation
                  JOINT RightHandMiddle2
                  {
                    OFFSET -4.0984 0.0113983 -0.0242
                    CHANNELS 3 Zrotation Xrotation Yrotation
                    JOINT RightHandMiddle3
                    {
                      OFFSET -2.2716 0.00691223 -0.0138001
                      CHANNELS 3 Zrotation Xrotation Yrotation
                      End Site
                      {
                        OFFSET -2.0404 -0.1441 0.0027
                      }
                    }
                  }
                }
                JOINT RightHandRing1
                {
                  OFFSET -8.5234 0.597198 -2.0164
                  CHANNELS 3 Zrotation Xrotation Yrotation
                  JOINT RightHandRing2
                  {
                    OFFSET -3.7188 -0.188309 -0.2328
                    CHANNELS 3 Zrotation Xrotation Yrotation
                    JOINT RightHandRing3
                    {
                      OFFSET -2.1191 -0.106598 -0.1332
                      CHANNELS 3 Zrotation Xrotation Yrotation
                      End Site
                      {
                        OFFSET -1.8737 -0.2304 -0.0886
                      }
                    }
                  }
                }
                JOINT RightHandPinky1
                {
                  OFFSET -7.9094 -0.601105 -3.4825
                  CHANNELS 3 Zrotation Xrotation Yrotation
                  JOINT RightHandPinky2
                  {
                    OFFSET -2.2874 -0.477005 -0.6314
                    CHANNELS 3 Zrotation Xrotation Yrotation
                    JOINT RightHandPinky3
                    {
                      OFFSET -1.6774 -0.349396 -0.4633
                      CHANNELS 3 Zrotation Xrotation Yrotation
                      End Site
                      {
                        OFFSET -1.4888 -0.4091 -0.3416
                      }
                    }
                  }
                }
                JOINT RightHandThumb1
                {
                  OFFSET -1.833 -1.38751 1.3896
                  CHANNELS 3 Zrotation Xrotation Yrotation
                  JOINT RightHandThumb2
                  {
                    OFFSET -3.41299 -1.12099 2.5732
                    CHANNELS 3 Zrotation Xrotation Yrotation
                    JOINT RightHandThumb3
                    {
                      OFFSET -2.24741 -0.804108 1.6192
                      CHANNELS 3 Zrotation Xrotation Yrotation
                      End Site
                      {
                        OFFSET -1.6527 -0.5689 1.1317
                      }
                    }
                  }
                }
              }
            }
          }
        }
      }
    }
  }
  JOINT RightUpLeg
  {
    OFFSET -9.1966 3.8861 -0.7581
    CHANNELS 3 Zrotation Xrotation Yrotation
    JOINT RightLeg
    {
      OFFSET -0.7359 -41.0265 0
      CHANNELS 3 Zrotation Xrotation Yrotation
      JOINT RightFoot
      {
        OFFSET 0 -40.2855 0
        CHANNELS 3 Zrotation Xrotation Yrotation
        JOINT RightToeBase
        {
          OFFSET 0 -5.6122 11.7359
          CHANNELS 3 Zrotation Xrotation Yrotation
          End Site
          {
            OFFSET 0 0 7.8731
          }
        }
      }
    }
  }
  JOINT LeftUpLeg
  {
    OFFSET 9.1965 3.8864 -0.7581
    CHANNELS 3 Zrotation Xrotation Yrotation
    JOINT LeftLeg
    {
      OFFSET 0.7359 -41.0268 0
      CHANNELS 3 Zrotation Xrotation Yrotation
      JOINT LeftFoot
      {
        OFFSET 0 -40.2855 0
        CHANNELS 3 Zrotation Xrotation Yrotation
        JOINT LeftToeBase
        {
          OFFSET 0 -5.6122 11.7359
          CHANNELS 3 Zrotation Xrotation Yrotation
          End Site
          {
            OFFSET 0 0 7.8731
          }
        }
      }
    }
  }
}
MOTION
Frames:	4
Frame Time:	0.0333333
5.84602e-005 68.8428 3.50346 0 0 -0 0 0 -0 0 0 -0 0 0 -0 0 0 -0 0 0 -0 0 0 -0 0 0 -0 0 0 -0 0 0 -0 0 0 -0 0 0 -0 0 0 -0 0 0 -0 -0.0146107 -8.87603e-005 -2.63497e-007 2.99804e-018 -2.42657e-020 -1.42182e-022 0 0 -0 -0.0187562 -0.001176 5.858e-005 5.06224e-018 3.88251e-019 1.21329e-020 0 0 -0 -0.012269 -0.00324817 0.000675346 -1.74678e-018 3.88251e-019 -0 0 0 -0 0 0 -0 0 0 -0 0 0 -0 0 0 -0 0 0 -0 0 0 -0 0 0 -0 0 0 -0 0 0 -0 0 0 -0 0.0149955 -9.10982e-005 2.64101e-007 -9.69331e-018 1.21329e-020 -4.7394e-023 0 0 -0 0.0189956 -0.00119102 -5.96516e-005 -5.41541e-019 0 2.42657e-020 0 0 -0 0.0122698 -0.00324857 -0.000673756 -2.00796e-019 0 -1.94126e-019 0 0 -0 0 0 -0 0 0 -0 3.39842 1.33031 -0.0637918 -5.65207e-008 0.834868 -0.000436188 -3.39935 -2.16518 -0.0642563 -8.89002e-024 -1.18485e-023 -1.48106e-024 -3.39844 1.35642 0.0640283 -3.18788e-007 0.782166 -0.000588827 3.39931 -2.13858 0.0634662 1.1399e-023 0 -0 
39.7386 39.6498 18.5649 -179.995 58.9865 -0.00885688 -0.0261179 8.04517 -0.0848085 -0.0406798 16.0904 -0.168402 -0.0406799 16.0904 -0.168402 2.96351e-006 13.9966 -1.15247e-006 -7.09211e-008 0.120652 -3.61617e-008 -17.4702 -1.22935 -1.91391 -45.8298 55.0433 3.22695 12.438 34.0288 -18.6324 1.68688 -5.3049 -1.33812 -6.52206e-008 2.82872e-007 9.56472e-006 -3.66563e-007 1.66012e-007 -5.45181e-006 -1.28868e-007 1.70029e-007 -5.43896e-009 -6.52206e-008 2.82872e-007 9.56472e-006 -0.0145995 -8.88564e-005 -2.88901e-007 -1.28869e-007 1.7003e-007 -5.41719e-009 -6.52206e-008 2.82872e-007 9.56472e-006 -0.0187787 -0.00117739 5.29097e-005 -1.28869e-007 1.7003e-007 -5.4098e-009 -6.52206e-008 2.82872e-007 9.56472e-006 -0.0122408 -0.00324103 0.000656009 -1.28868e-007 1.7003e-007 -5.41711e-009 -6.52206e-008 2.82872e-007 9.56472e-006 -3.66563e-007 1.66012e-007 -5.45181e-006 -1.28868e-007 1.70029e-007 -5.43896e-009 11.0049 -1.90558 1.24652 54.3892 54.9138 -3.08767 -13.3653 33.7325 23.4114 -1.19311 -3.20417 -4.78415 -1.28863e-007 -1.70032e-007 -5.43038e-009 6.33313e-008 2.84213e-007 -9.56465e-006 -1.28863e-007 -1.70032e-007 -5.43039e-009 -1.28863e-007 -1.70032e-007 -5.43038e-009 0.0150136 -9.09675e-005 -5.44375e-007 -1.28864e-007 -1.70033e-007 -5.40799e-009 -1.28863e-007 -1.70032e-007 -5.43038e-009 0.0189608 -0.00118907 -5.56132e-005 -1.28864e-007 -1.70033e-007 -5.40092e-009 -1.28863e-007 -1.70032e-007 -5.43038e-009 0.0122994 -0.00325597 -0.000678422 -1.28863e-007 -1.70033e-007 -5.40847e-009 -1.28863e-007 -1.70032e-007 -5.43038e-009 6.33313e-008 2.84213e-007 -9.56465e-006 -1.28863e-007 -1.70032e-007 -5.43039e-009 -54.3596 -71.6572 -84.25 -1.56475 34.6974 41.8265 -21.3327 -2.30271 -5.48728 -5.24354e-008 -9.3988e-007 5.02406e-007 54.3099 -71.6827 84.194 1.56894 34.687 -41.8418 21.3148 -2.28855 5.47702 -1.59028e-015 -1.59028e-015 1.59028e-015 
39.7394 39.6492 18.5634 -179.995 58.9947 -0.00885826 -0.0265175 8.16664 -0.084656 -0.0413387 16.3333 -0.168052 -0.0413386 16.3333 -0.168052 2.26504e-007 13.8803 -3.40991e-007 4.97172e-008 0.120348 -1.44375e-008 -16.8391 -1.56303 -2.1789 -46.2887 55.0363 3.19995 12.438 34.0288 -18.6324 1.82398 -5.58385 -1.15935 1.28464e-007 -1.70335e-007 5.3893e-009 4.18712e-008 2.988e-007 -8.8266e-009 1.28464e-007 -1.70335e-007 5.38931e-009 1.28464e-007 -1.70335e-007 5.3893e-009 -0.0145966 -8.8519e-005 5.06482e-006 1.28465e-007 -1.70336e-007 5.36751e-009 1.28464e-007 -1.70335e-007 5.3893e-009 -0.0187789 -0.0011771 6.89089e-005 1.28465e-007 -1.70336e-007 5.36007e-009 1.28464e-007 -1.70335e-007 5.3893e-009 -0.0122889 -0.0032533 0.000674402 1.28464e-007 -1.70337e-007 5.36736e-009 1.28464e-007 -1.70335e-007 5.3893e-009 4.18712e-008 2.988e-007 -8.8266e-009 1.28464e-007 -1.70335e-007 5.38931e-009 10.4447 -2.30773 1.49502 54.7976 54.9119 -3.07746 -13.3653 33.7325 23.4114 -1.30741 -3.47701 -4.94861 -4.18595e-008 2.98801e-007 8.83707e-009 4.18595e-008 -2.98801e-007 -8.83707e-009 -4.18595e-008 2.98801e-007 8.83707e-009 -4.18595e-008 2.98801e-007 8.83707e-009 0.0150021 -9.14376e-005 -6.991e-007 -4.18597e-008 2.98803e-007 8.798e-009 -4.18595e-008 2.98801e-007 8.83707e-009 0.0189725 -0.0011898 -6.20917e-005 -4.18599e-008 2.98803e-007 8.78805e-009 -4.18595e-008 2.98801e-007 8.83707e-009 0.0122453 -0.0032427 -0.000676894 -4.18612e-008 2.98802e-007 8.80636e-009 -4.18595e-008 2.98801e-007 8.83707e-009 4.18595e-008 -2.98801e-007 -8.83707e-009 -4.18595e-008 2.98801e-007 8.83707e-009 -53.9754 -71.8998 -83.8934 -1.56499 34.7054 41.8256 -21.624 -2.28497 -5.626 -9.49197e-015 0 1.59028e-015 54.0953 -71.8333 83.9951 1.56908 34.6912 -41.8417 21.4979 -2.2846 5.56682 -1.27993e-006 -6.91584e-007 8.0211e-008 
39.7402 39.6493 18.5627 -179.995 58.9947 -0.00885826 -0.0269184 8.28837 -0.0845007 -0.0420012 16.5768 -0.167696 -0.0420012 16.5768 -0.167696 5.7145e-007 13.7637 1.46406e-007 8.33686e-008 0.120038 7.21589e-008 -16.2089 -1.8999 -2.44045 -46.7477 55.0294 3.17288 12.438 34.0288 -18.6324 1.96204 -5.86241 -0.979747 1.54487e-031 2.78299e-015 -3.18055e-015 7.95139e-016 2.5842e-015 -3.18055e-015 3.97569e-016 2.78299e-015 -3.18055e-015 1.54487e-031 2.78299e-015 -3.18055e-015 -0.0146269 -8.87515e-005 -6.45616e-006 5.51738e-032 9.93923e-016 -3.18055e-015 1.54487e-031 2.78299e-015 -3.18055e-015 -0.01875 -0.00117579 5.84787e-005 3.97569e-016 8.94531e-016 -6.36111e-015 1.54487e-031 2.78299e-015 -3.18055e-015 -0.0122779 -0.00325033 0.000682756 -3.97569e-016 -2.64384e-014 -0 1.54487e-031 2.78299e-015 -3.18055e-015 7.95139e-016 2.5842e-015 -3.18055e-015 3.97569e-016 2.78299e-015 -3.18055e-015 9.88578 -2.71263 1.73983 55.2061 54.91 -3.06722 -13.3653 33.7325 23.4114 -1.42255 -3.74956 -5.11371 -0 -1.98785e-016 -0 -0 -1.98785e-016 -0 -0 -1.98785e-016 -0 -0 -1.98785e-016 -0 0.0149947 -9.09826e-005 -9.96941e-006 7.95139e-016 3.97569e-016 -0 -0 -1.98785e-016 -0 0.0189745 -0.00118979 -5.72122e-005 7.95139e-016 1.68967e-015 3.18055e-015 -0 -1.98785e-016 -0 0.0122328 -0.00323924 -0.000675433 -3.97569e-016 -6.95746e-016 3.18055e-015 -0 -1.98785e-016 -0 -0 -1.98785e-016 -0 -0 -1.98785e-016 -0 -53.5818 -72.1418 -83.5275 -1.56527 34.7137 41.8246 -21.9153 -2.26658 -5.76464 3.37973e-006 -6.16781e-008 -6.36366e-008 53.8778 -71.9837 83.7933 1.5692 34.6956 -41.8415 21.6812 -2.28041 5.65662 -6.60191e-009 -3.56398e-007 4.8628e-007 
